<?xml version="1.0" encoding="iso-8859-1"?>
<!-- Uploaded to: SVG Repo, www.svgrepo.com, Generator: SVG Repo Mixer Tools -->
<svg version="1.1" id="Layer_1" xmlns="http://www.w3.org/2000/svg" xmlns:xlink="http://www.w3.org/1999/xlink" 
	 viewBox="0 0 512 512" xml:space="preserve">
<circle style="fill:#C1321F;" cx="256" cy="256" r="256"/>
<path style="fill:#A82116;" d="M511.545,271.105L330.654,90.214l-0.012,204.748l-152.74-152.74l4.834,207.157l-68.956,48.843
	l111.992,111.992C235.687,511.381,245.77,512,256,512C392.313,512,503.725,405.457,511.545,271.105z"/>
<path style="fill:#FFD15D;" d="M177.902,222.675l-14.367-14.367c-14.283-14.283-14.283-37.436,0-51.719l14.367-14.367l14.367,14.367
	c14.283,14.283,14.283,37.436,0,51.719L177.902,222.675z"/>
<path style="fill:#F9B54C;" d="M192.269,156.589l-14.367-14.367l-0.05,0.05v80.353l0.05,0.05l14.367-14.367
	C206.55,194.026,206.55,170.872,192.269,156.589z"/>
<path style="fill:#FFD15D;" d="M330.652,170.667L316.285,156.3c-14.283-14.283-14.283-37.436,0-51.719l14.367-14.367l14.367,14.367
	c14.283,14.283,14.283,37.436,0,51.719L330.652,170.667z"/>
<path style="fill:#F9B54C;" d="M345.021,104.581l-14.315-14.315v80.35l14.315-14.315
	C359.302,142.017,359.302,118.863,345.021,104.581z"/>
<path style="fill:#E6F3FF;" d="M254.278,303.73l-12.84-12.84c-12.762-12.762-12.762-33.454,0-46.218l12.84-12.84l12.84,12.84
	c12.762,12.762,12.762,33.454,0,46.218L254.278,303.73z"/>
<path style="fill:#CFDBE6;" d="M267.116,244.674l-12.84-12.84l-0.574,0.574v70.747l0.574,0.574l12.84-12.84
	C279.878,278.128,279.878,257.436,267.116,244.674z"/>
<rect x="126.983" y="220.005" style="fill:#F4E3C3;" width="101.831" height="178.217"/>
<rect x="177.855" y="220.005" style="fill:#FED8B2;" width="50.967" height="178.217"/>
<rect x="279.738" y="169.098" style="fill:#FFB3D0;" width="101.831" height="229.124"/>
<rect x="330.697" y="169.098" style="fill:#FF97A4;" width="50.866" height="229.124"/>
<rect x="203.369" y="296.391" style="fill:#FC6F58;" width="101.831" height="101.831"/>
<g>
	<rect x="253.707" y="296.391" style="fill:#F1543F;" width="51.491" height="101.831"/>
	<path style="fill:#F1543F;" d="M305.619,259.612c0-6.871,5.604-12.441,12.517-12.441c6.913,0,12.517,5.57,12.517,12.441
		c0-6.871,5.604-12.441,12.517-12.441s12.517,5.57,12.517,12.441c0,11.897-25.033,26.126-25.033,26.126
		S305.619,272.177,305.619,259.612z"/>
</g>
<path style="fill:#C1321F;" d="M355.687,259.612c0-6.871-5.604-12.441-12.517-12.441c-6.57,0-11.947,5.034-12.466,11.43v27.108
	C331.774,285.094,355.687,271.241,355.687,259.612z"/>
<path style="fill:#F1543F;" d="M152.869,275.016c0-6.871,5.604-12.441,12.517-12.441c6.913,0,12.517,5.57,12.517,12.441
	c0-6.871,5.604-12.441,12.517-12.441c6.913,0,12.517,5.57,12.517,12.441c0,11.897-25.033,26.126-25.033,26.126
	S152.869,287.584,152.869,275.016z"/>
<path style="fill:#C1321F;" d="M190.417,262.575c-6.913,0-12.517,5.57-12.517,12.441c0-0.334-0.024-0.662-0.05-0.988v27.088
	c0.024,0.012,0.05,0.028,0.05,0.028s25.033-14.229,25.033-26.126C202.935,268.145,197.33,262.575,190.417,262.575z"/>
<rect x="113.778" y="369.778" style="fill:#CFDBE6;" width="284.444" height="28.444"/>
<rect x="253.707" y="369.778" style="fill:#B8C9D9;" width="144.515" height="28.444"/>
</svg>