<?xml version="1.0" encoding="iso-8859-1"?>
<!-- Uploaded to: SVG Repo, www.svgrepo.com, Generator: SVG Repo Mixer Tools -->
<svg height="800px" width="800px" version="1.1" id="Layer_1" xmlns="http://www.w3.org/2000/svg" xmlns:xlink="http://www.w3.org/1999/xlink" 
	 viewBox="0 0 511.999 511.999" xml:space="preserve">
<path style="fill:#C69C6D;" d="M284.735,34.383c-16.492,5.562-21.003,10.071-26.57,26.549c-5.566-16.479-10.078-20.987-26.57-26.549
	c16.492-5.56,21.003-10.069,26.57-26.548C263.732,24.315,268.244,28.824,284.735,34.383z"/>
<path style="fill:#FFCC60;" d="M284.735,34.383c-16.492,5.562-21.003,10.071-26.57,26.549c-5.566-16.479-10.078-20.987-26.57-26.549
	c16.492-5.56,21.003-10.069,26.57-26.548C263.732,24.315,268.244,28.824,284.735,34.383z"/>
<path style="fill:#C69C6D;" d="M371.92,110.139c-16.492,5.561-21.004,10.069-26.569,26.548
	c-5.567-16.479-10.078-20.987-26.57-26.548c16.492-5.561,21.002-10.07,26.57-26.548C350.917,100.07,355.429,104.578,371.92,110.139z
	"/>
<g>
	<path style="fill:#FFCC60;" d="M371.92,110.139c-16.492,5.561-21.004,10.069-26.569,26.548
		c-5.567-16.479-10.078-20.987-26.57-26.548c16.492-5.561,21.002-10.07,26.57-26.548C350.917,100.07,355.429,104.578,371.92,110.139
		z"/>
	<path style="fill:#FFCC60;" d="M205.235,104.349c-20.221,6.819-25.753,12.348-32.578,32.553
		c-6.825-20.205-12.358-25.734-32.579-32.553c20.221-6.818,25.754-12.347,32.579-32.553
		C179.483,92.002,185.014,97.531,205.235,104.349z"/>
</g>
<path style="fill:#CCCCCC;" d="M221.285,279.256c-59.281,0-107.506-48.327-107.506-107.727c0-4.133,3.344-7.481,7.467-7.481h269.512
	c4.121,0,7.465,3.349,7.465,7.481c0,59.4-48.226,107.727-107.506,107.727H221.285z"/>
<path style="opacity:0.1;enable-background:new    ;" d="M146.285,171.529c0-4.133,3.344-7.481,7.467-7.481h-32.507
	c-4.123,0-7.467,3.349-7.467,7.481c0,59.4,48.225,107.727,107.506,107.727h32.507C194.51,279.256,146.285,230.93,146.285,171.529z"
	/>
<path style="fill:#CEE9FF;" d="M398.22,212.249c0-4.132-3.344-7.481-7.465-7.481h-269.51c-4.123,0-7.467,3.35-7.467,7.481
	c0,49.449,33.422,91.218,78.819,103.826v11.854c0,7.016,5.677,12.706,12.681,12.706h101.445c7.003,0,12.681-5.689,12.681-12.706
	v-11.854C364.799,303.466,398.22,261.697,398.22,212.249z"/>
<path style="opacity:0.1;enable-background:new    ;" d="M146.285,212.249c0-4.132,3.344-7.481,7.467-7.481h-32.507
	c-4.123,0-7.467,3.35-7.467,7.481c0,59.401,48.225,107.728,107.506,107.728h32.507C194.51,319.976,146.285,271.649,146.285,212.249z
	"/>
<path style="fill:#F2EBAA;" d="M59.516,357.545c9.063,26.069,33.842,44.793,63.02,44.793h266.927
	c29.179,0,53.955-18.724,63.021-44.793H59.516z"/>
<path style="fill:#CEE9FF;" d="M59.516,408.756c9.063,26.069,33.842,44.794,63.02,44.794h266.927
	c29.179,0,53.955-18.725,63.021-44.794H59.516z"/>
<path style="fill:#F2EBAA;" d="M491.431,355.228c0,8.682-7.044,15.721-15.733,15.721H36.301c-8.689,0-15.733-7.038-15.733-15.721
	l0,0c0-8.682,7.044-15.722,15.733-15.722h439.396C484.387,339.506,491.431,346.546,491.431,355.228L491.431,355.228z"/>
<path style="opacity:0.1;enable-background:new    ;" d="M64.125,355.228c0-8.682,7.044-15.722,15.733-15.722H36.301
	c-8.689,0-15.733,7.039-15.733,15.722s7.044,15.721,15.733,15.721h43.557C71.169,370.948,64.125,363.909,64.125,355.228z"/>
<path style="fill:#CEE9FF;" d="M491.431,406.334c0,8.682-7.044,15.721-15.733,15.721H36.301c-8.689,0-15.733-7.038-15.733-15.721
	l0,0c0-8.683,7.044-15.723,15.733-15.723h439.396C484.387,390.611,491.431,397.651,491.431,406.334L491.431,406.334z"/>
<path style="opacity:0.1;enable-background:new    ;" d="M75.232,406.334c0-8.683,7.044-15.723,15.733-15.723H36.301
	c-8.689,0-15.733,7.038-15.733,15.723c0,8.682,7.044,15.721,15.733,15.721h54.664C82.276,422.054,75.232,415.016,75.232,406.334z"/>
<path style="fill:#ACEBE9;" d="M59.516,459.37c9.063,26.07,33.842,44.793,63.02,44.793h266.927
	c29.179,0,53.955-18.722,63.021-44.793H59.516z"/>
<path style="opacity:0.1;enable-background:new    ;" d="M113.893,459.37H59.516c9.063,26.07,33.842,44.793,63.02,44.793h54.378
	C147.736,504.162,122.957,485.44,113.893,459.37z"/>
<path style="fill:#ACEBE9;" d="M491.431,456.947c0,8.681-7.044,15.719-15.733,15.719H36.301c-8.689,0-15.733-7.038-15.733-15.719
	l0,0c0-8.684,7.044-15.721,15.733-15.721h439.396C484.387,441.226,491.431,448.263,491.431,456.947L491.431,456.947z"/>
<path style="opacity:0.1;enable-background:new    ;" d="M86.068,456.947c0-8.684,7.044-15.721,15.733-15.721H36.301
	c-8.689,0-15.733,7.037-15.733,15.721c0,8.681,7.044,15.719,15.733,15.719h65.499C93.111,472.666,86.068,465.627,86.068,456.947z"/>
<path d="M137.575,111.775c17.974,6.063,21.593,9.678,27.658,27.635c1.075,3.185,4.063,5.329,7.424,5.329
	c3.361,0,6.349-2.144,7.424-5.329c6.066-17.959,9.684-21.574,27.657-27.635c3.187-1.074,5.333-4.063,5.333-7.425
	c0-3.364-2.146-6.351-5.333-7.425c-17.973-6.06-21.592-9.677-27.657-27.634c-1.075-3.186-4.063-5.33-7.424-5.33
	c-3.361,0-6.349,2.144-7.424,5.329c-6.066,17.96-9.685,21.574-27.658,27.635c-3.187,1.074-5.333,4.063-5.333,7.425
	C132.242,107.712,134.388,110.7,137.575,111.775z M172.657,91.273c3.413,5.594,7.485,9.665,13.081,13.077
	c-5.596,3.412-9.668,7.483-13.081,13.078c-3.414-5.594-7.486-9.666-13.082-13.078C165.172,100.938,169.245,96.867,172.657,91.273z"
	/>
<path d="M229.092,41.809c14.22,4.796,16.851,7.424,21.649,21.631c1.075,3.185,4.063,5.329,7.424,5.329
	c3.361,0,6.349-2.144,7.424-5.329c4.799-14.207,7.429-16.835,21.649-21.631c3.187-1.074,5.332-4.064,5.332-7.425
	c0-3.364-2.146-6.352-5.333-7.425c-14.219-4.795-16.849-7.423-21.648-21.63C264.514,2.144,261.527,0,258.165,0
	c-3.361,0-6.349,2.144-7.424,5.33c-4.798,14.207-7.428,16.834-21.648,21.628c-3.187,1.074-5.333,4.064-5.333,7.426
	C223.76,37.746,225.905,40.734,229.092,41.809z M258.166,26.314c2.247,3.225,4.848,5.826,8.075,8.072
	c-3.227,2.244-5.828,4.846-8.075,8.072c-2.247-3.226-4.847-5.826-8.074-8.072C253.318,32.14,255.92,29.538,258.166,26.314z"/>
<path d="M316.279,117.565c14.219,4.796,16.85,7.423,21.649,21.63c1.076,3.185,4.064,5.329,7.424,5.329
	c3.361,0,6.349-2.144,7.424-5.33c4.798-14.206,7.428-16.833,21.648-21.629c3.187-1.074,5.333-4.063,5.333-7.425
	c0-3.364-2.146-6.351-5.333-7.425c-14.219-4.795-16.85-7.423-21.648-21.63c-1.075-3.185-4.063-5.329-7.424-5.329
	s-6.349,2.144-7.424,5.329c-4.799,14.207-7.429,16.835-21.649,21.63c-3.187,1.074-5.332,4.063-5.332,7.425
	C310.945,113.502,313.092,116.489,316.279,117.565z M345.351,102.068c2.245,3.225,4.848,5.826,8.074,8.072
	c-3.227,2.245-5.827,4.846-8.074,8.072c-2.245-3.226-4.848-5.826-8.074-8.072C340.502,107.894,343.105,105.292,345.351,102.068z"/>
<path d="M475.698,429.891c12.996,0,23.57-10.567,23.57-23.557c0-12.991-10.573-23.559-23.57-23.559h-28.515
	c1.061-1.297,2.094-2.619,3.07-3.989h25.445c12.996,0,23.57-10.567,23.57-23.557s-10.573-23.558-23.57-23.558H326.967
	c0.174-1.071,0.274-2.167,0.274-3.287v-6.51c45.753-15.344,78.818-58.685,78.818-109.622c0-3.99-1.545-7.619-4.052-10.348
	c2.636-9.682,4.052-19.864,4.052-30.371c0-8.447-6.864-15.318-15.302-15.318H121.245c-8.439,0-15.304,6.871-15.304,15.318
	c0,10.509,1.416,20.69,4.053,30.371c-2.507,2.728-4.053,6.357-4.053,10.348c0,50.938,33.066,94.28,78.819,109.622v6.51
	c0,1.12,0.099,2.216,0.274,3.287H36.301c-12.996,0-23.57,10.568-23.57,23.558c0,12.99,10.573,23.557,23.57,23.557h25.445
	c0.975,1.372,2.009,2.693,3.07,3.989H36.301c-12.996,0-23.57,10.568-23.57,23.559c0,12.99,10.573,23.557,23.57,23.557H61.67
	c0.848,1.197,1.741,2.357,2.655,3.498H36.301c-12.996,0-23.57,10.568-23.57,23.558c0,12.989,10.573,23.556,23.57,23.556h25.375
	c13.736,19.392,36.267,31.495,60.859,31.495h266.926c24.591,0,47.122-12.103,60.859-31.496h25.376
	c12.996,0,23.57-10.567,23.57-23.556c0-12.99-10.573-23.558-23.57-23.558h-28.024c0.913-1.141,1.806-2.301,2.654-3.498h25.37
	V429.891z M121.615,212.604h46.613c4.328,0,7.837-3.508,7.837-7.837c0-4.329-3.509-7.837-7.837-7.837h-43.342
	c-2.103-8.004-3.24-16.397-3.271-25.046h268.769c-0.03,8.649-1.167,17.042-3.271,25.046H206.889c-4.328,0-7.837,3.508-7.837,7.837
	c0,4.329,3.509,7.837,7.837,7.837h183.494c-0.191,54.919-44.828,99.536-99.67,99.536h-7.547c-4.328,0-7.837,3.508-7.837,7.837
	s3.509,7.837,7.837,7.837h7.547c7.119,0,14.086-0.654,20.852-1.896v2.465c0,1.271-0.498,2.419-1.295,3.287H201.727
	c-0.796-0.868-1.294-2.018-1.294-3.287v-2.465c6.766,1.242,13.733,1.896,20.852,1.896h29.489c4.328,0,7.837-3.508,7.837-7.837
	s-3.509-7.837-7.837-7.837h-29.49C166.443,312.139,121.806,267.522,121.615,212.604z M36.301,363.111
	c-4.354,0-7.896-3.537-7.896-7.884c0-4.348,3.542-7.885,7.896-7.885h439.396c4.354,0,7.896,3.537,7.896,7.885
	c0,4.347-3.542,7.884-7.896,7.884H36.301z M429.487,378.785c-1.533,1.418-3.146,2.744-4.817,3.989H87.328
	c-1.672-1.246-3.284-2.572-4.817-3.989H429.487z M475.698,449.063c4.354,0,7.896,3.537,7.896,7.885c0,4.347-3.542,7.883-7.896,7.883
	H189.125c-4.328,0-7.837,3.508-7.837,7.837c0,4.329,3.509,7.837,7.837,7.837h240.473c-10.666,9.931-24.898,15.822-40.136,15.822
	H122.536c-15.239,0-29.47-5.891-40.137-15.823h71.2c4.328,0,7.837-3.508,7.837-7.837s-3.509-7.837-7.837-7.837H36.301
	c-4.354,0-7.896-3.536-7.896-7.883c0-4.348,3.542-7.885,7.896-7.885h439.396V449.063z M82.405,429.891h347.187
	c-1.324,1.231-2.703,2.396-4.132,3.498H86.537C85.11,432.287,83.729,431.122,82.405,429.891z M36.301,414.217
	c-4.354,0-7.896-3.537-7.896-7.884c0-4.348,3.542-7.886,7.896-7.886h439.396c4.354,0,7.896,3.538,7.896,7.886
	c0,4.347-3.542,7.884-7.896,7.884H36.301z"/>
<g>
	<path style="fill:#FFFFFF;" d="M357.708,220.173c-5.108,12.333-9.249,16.474-21.582,21.583
		c12.333,5.107,16.474,9.249,21.582,21.581c5.107-12.333,9.249-16.475,21.582-21.581
		C366.957,236.646,362.816,232.505,357.708,220.173z"/>
	<circle style="fill:#FFFFFF;" cx="341.796" cy="276.573" r="9.521"/>
</g>
</svg>