<?xml version="1.0" encoding="iso-8859-1"?>
<!-- Uploaded to: SVG Repo, www.svgrepo.com, Generator: SVG Repo Mixer Tools -->
<!DOCTYPE svg PUBLIC "-//W3C//DTD SVG 1.1//EN" "http://www.w3.org/Graphics/SVG/1.1/DTD/svg11.dtd">
<svg fill="#000000" version="1.1" id="Capa_1" xmlns="http://www.w3.org/2000/svg" xmlns:xlink="http://www.w3.org/1999/xlink" 
	 width="800px" height="800px" viewBox="0 0 463.645 463.645"
	 xml:space="preserve">
<g>
	<path d="M389.471,284.807c0-0.458-0.066-0.898-0.113-1.341v-61.585c0-2.155-0.598-4.264-1.73-6.097l-41.32-66.75V72.908
		c0.238-0.928,0.406-1.878,0.406-2.879V41.885c0-1.001-0.168-1.951-0.406-2.879V11.583C346.307,5.186,341.117,0,334.725,0H129.41
		c-6.392,0-11.586,5.186-11.586,11.583v136.473l-41.918,67.729c-1.133,1.833-1.732,3.941-1.732,6.097v62.927
		c0,5.176,3.441,9.723,8.417,11.143c0.044,0.018,0.089,0.006,0.146,0.021l59.498,44.682l-5.973,4.314
		c-5.179,3.75-6.343,10.988-2.6,16.176c2.262,3.133,5.802,4.795,9.4,4.795c2.352,0,4.719-0.711,6.776-2.193l11.796-8.527
		l51.537,38.707l-65.076,48.871c-5.114,3.848-6.143,11.104-2.296,16.221c2.272,3.031,5.746,4.627,9.264,4.627
		c2.422,0,4.863-0.758,6.944-2.318l70.461-52.91l70.46,52.91c2.078,1.561,4.521,2.318,6.941,2.318c3.521,0,6.994-1.594,9.27-4.627
		c3.844-5.117,2.814-12.373-2.299-16.221l-65.076-48.871l50.971-38.277l11.098,8.076c2.059,1.498,4.443,2.217,6.811,2.217
		c3.572,0,7.102-1.65,9.365-4.77c3.766-5.174,2.625-12.42-2.547-16.18l-5.348-3.893l61.928-46.513
		C387.299,292.531,389.471,288.936,389.471,284.807z M107.76,273.223l28.164-46.383h192.342l28.719,46.383H107.76z M323.139,58.446
		H141.4v-4.977h181.739V58.446L323.139,58.446z M323.139,81.612v70.72v51.343H140.992V81.612H323.139z M366.193,225.178v18.251
		l-19.887-32.735v-17.641L366.193,225.178z M323.139,23.166v7.137H140.992v-7.137H323.139z M97.34,225.178l19.885-32.125v18.907
		L97.34,244.085V225.178z M121.886,296.389h81.602l-41.592,30.057L121.886,296.389z M232.468,379.439l-51.172-38.434l50.82-36.729
		l51.013,37.115L232.468,379.439z M260.645,296.389h82.414l-40.553,30.451L260.645,296.389z"/>
</g>
</svg>